<?xml version="1.0"?>
<svg xmlns="http://www.w3.org/2000/svg" xmlns:xlink="http://www.w3.org/1999/xlink" version="1.1" id="Layer_1" x="0px" y="0px" viewBox="0 0 511.999 511.999" style="enable-background:new 0 0 511.999 511.999;" xml:space="preserve" width="512px" height="512px" class=""><g><circle style="fill:#FF8C00" cx="255.999" cy="255.947" r="255.947" data-original="#E84F4F" class="" data-old_color="#E84F4F"/><path style="fill:#FF7C00" d="M236.682,511.273L92.503,367.094l105.537-44.771l122.364-118.937l12.465-92.76L510.08,287.837  c-15.685,126.312-123.404,224.162-253.974,224.162C249.562,512,243.122,511.792,236.682,511.273z" data-original="#D14747" class="" data-old_color="#D14747"/><path style="fill:#FFFFFF" d="M226.293,229.979c4.259-8.725,15.062-26.176,37.914-39.472c31.89-18.489,43.524-59.208,45.082-70.531  c1.558-11.426,28.877-24.826,32.201,12.049s-19.113,61.806-19.113,61.806h77.387c23.684-3.324,27.423,35.422,4.155,35.837  l-7.376,0.104l-0.208,1.973h4.467c18.802,0,18.802,36.876,0,36.876h-0.935c14.127,4.675,13.192,36.148-4.259,36.148h-4.986v0.104  c11.945,2.597,10.7,13.711,10.7,22.956c0,15.582-40.511,23.788-50.691,26.592c-29.397,7.998-68.142-0.935-101.07-3.947  l-20.671-2.389h-45.185V229.979h42.692H226.293z" data-original="#FFC964" class="" data-old_color="#FFC964"/><path style="fill:#431B91" d="M168.227,221.669h52.249v134.934h-52.249V221.669z" data-original="#FFFFFF" class="active-path" data-old_color="#FFFFFF"/><path style="fill:#290A59" d="M92.503,211.074h93.072v156.02H92.503V211.074z" data-original="#006775" class="" data-old_color="#006775"/></g> </svg>
